<svg width="29" height="30" viewBox="0 0 29 30" fill="none" xmlns="http://www.w3.org/2000/svg">
    <path fill-rule="evenodd" clip-rule="evenodd" d="M20.3585 1.69503L20.4472 1.7188C21.913 2.11156 23.0746 2.4228 23.9883 2.75285C24.9229 3.09046 25.685 3.47666 26.3128 4.06471C27.2271 4.92098 27.8669 6.02914 28.1513 7.24903C28.3466 8.08678 28.3 8.93989 28.1251 9.91807C27.9541 10.8744 27.6428 12.036 27.2501 13.5019L26.5361 16.1663C26.1434 17.6321 25.8321 18.7937 25.5021 19.7074C25.1645 20.6419 24.7783 21.4041 24.1902 22.0319C23.3612 22.9171 22.2961 23.545 21.122 23.8422C20.779 24.6285 20.2781 25.3406 19.6462 25.9324C19.0183 26.5205 18.2562 26.9067 17.3216 27.2443C16.408 27.5743 15.2464 27.8856 13.7806 28.2783L13.692 28.3021C12.2261 28.6949 11.0645 29.0061 10.1081 29.1771C9.12996 29.352 8.27684 29.3986 7.43909 29.2033C6.2192 28.9189 5.11105 28.2791 4.25477 27.3648C3.66673 26.737 3.28053 25.9749 2.94292 25.0403C2.61286 24.1266 2.30162 22.965 1.90885 21.4992L1.19492 18.8347C0.802145 17.3689 0.490886 16.2073 0.319886 15.251C0.144972 14.2728 0.0983734 13.4197 0.29371 12.582C0.578149 11.3621 1.21794 10.2539 2.13218 9.39764C2.76003 8.8096 3.52214 8.4234 4.45673 8.08579C5.3704 7.75573 6.53201 7.44449 7.99784 7.05173L8.04216 7.03985C8.39478 6.94537 8.72842 6.85612 9.04429 6.77266C9.56644 4.90716 10.0259 3.58843 10.9214 2.6323C11.7777 1.71806 12.8859 1.07827 14.1058 0.793832C14.9435 0.598495 15.7966 0.645094 16.7748 0.820008C17.7311 0.991007 18.8927 1.30226 20.3585 1.69503ZM8.43998 9.00381C6.98281 9.39436 5.9387 9.67693 5.13623 9.96682C4.32367 10.2603 3.84657 10.5322 3.49936 10.8574C2.87383 11.4432 2.43608 12.2015 2.24146 13.0361C2.13344 13.4994 2.13658 14.0485 2.28866 14.899C2.44293 15.7617 2.73136 16.8414 3.13865 18.3614L3.82883 20.9372C4.23612 22.4572 4.52618 23.5365 4.82395 24.3608C5.11748 25.1734 5.38931 25.6504 5.7145 25.9977C6.30037 26.6232 7.05858 27.0609 7.89324 27.2556C8.35653 27.3636 8.90562 27.3604 9.75609 27.2084C10.6188 27.0541 11.6985 26.7657 13.2185 26.3584C14.7386 25.9511 15.8178 25.661 16.6421 25.3633C17.4547 25.0697 17.9318 24.7979 18.279 24.4727C18.4624 24.3009 18.6297 24.1143 18.7794 23.9154C18.5407 23.8817 18.2951 23.8388 18.0409 23.7882C17.1451 23.6101 16.0691 23.3218 14.7411 22.9659L14.6645 22.9454C13.1987 22.5527 12.0371 22.2414 11.1234 21.9114C10.1888 21.5737 9.42669 21.1875 8.79885 20.5995C7.88461 19.7432 7.24482 18.6351 6.96038 17.4152C6.76504 16.5774 6.81164 15.7243 6.98655 14.7461C7.15755 13.7898 7.46881 12.6282 7.86159 11.1624L8.43998 9.00381ZM16.4228 2.78878C15.5723 2.6367 15.0232 2.63356 14.5599 2.74159C13.7252 2.9362 12.967 3.37395 12.3812 3.99949C11.7997 4.62032 11.4419 5.57945 10.8196 7.85772C10.7184 8.22799 10.6115 8.62705 10.4955 9.05992L9.80532 11.6357C9.39803 13.1557 9.1096 14.2354 8.95532 15.0982C8.80325 15.9486 8.80011 16.4977 8.90813 16.961C9.10275 17.7957 9.5405 18.5539 10.166 19.1398C10.5132 19.465 10.9903 19.7368 11.8029 20.0303C12.6272 20.3281 13.7065 20.6182 15.2265 21.0254C16.5937 21.3918 17.607 21.6628 18.4309 21.8266C19.2512 21.9897 19.8079 22.0298 20.2642 21.9735C20.3634 21.9612 20.4588 21.9443 20.5518 21.9226C21.3864 21.728 22.1446 21.2903 22.7305 20.6647C23.0557 20.3175 23.3275 19.8404 23.6211 19.0279C23.9188 18.2036 24.2089 17.1243 24.6162 15.6043L25.3064 13.0285C25.7136 11.5085 26.0021 10.4288 26.1563 9.56603C26.3084 8.71556 26.3116 8.16646 26.2035 7.70318C26.0089 6.86852 25.5712 6.11031 24.9456 5.52444C24.5984 5.19925 24.1213 4.92742 23.3088 4.63389C22.4845 4.33612 21.4052 4.04606 19.8852 3.63877C18.3652 3.23148 17.2855 2.94305 16.4228 2.78878ZM13.2365 12.0746C13.3794 11.5411 13.9278 11.2245 14.4612 11.3675L20.9007 13.0929C21.4342 13.2359 21.7508 13.7842 21.6079 14.3177C21.4649 14.8511 20.9166 15.1677 20.3831 15.0248L13.9436 13.2993C13.4101 13.1564 13.0936 12.6081 13.2365 12.0746ZM12.2007 15.9382C12.3436 15.4047 12.892 15.0881 13.4254 15.2311L17.2891 16.2664C17.8226 16.4093 18.1392 16.9576 17.9962 17.4911C17.8533 18.0246 17.305 18.3412 16.7715 18.1982L12.9078 17.1629C12.3743 17.02 12.0577 16.4717 12.2007 15.9382Z" fill="#38383B"/>
</svg>
